<svg version="1.1" xmlns="http://www.w3.org/2000/svg" xmlns:xlink="http://www.w3.org/1999/xlink" width="512.000000pt" height="512.000000pt" viewBox="0,0,256,256"><g fill="#37c89d" fill-rule="nonzero" stroke="none" stroke-width="1" stroke-linecap="butt" stroke-linejoin="miter" stroke-miterlimit="10" stroke-dasharray="" stroke-dashoffset="0" font-family="none" font-weight="none" font-size="none" text-anchor="none" style="mix-blend-mode: normal"><g transform="translate(-0.1056,16.10549) scale(0.5,0.5)"><g transform="translate(0,512) scale(0.1,-0.1)"><path d="M2045,4478c-22,-5 -52,-20 -66,-34c-15,-14 -465,-683 -1000,-1486l-974,-1461v-58c0,-62 17,-94 69,-133c38,-29 133,-29 173,-1c16,12 423,613 923,1363c492,738 897,1341 900,1342c3,0 264,-454 580,-1008c316,-554 588,-1021 605,-1039c52,-52 146,-57 202,-9c16,13 143,195 282,405c220,330 256,379 266,363c7,-9 193,-321 414,-692c260,-436 415,-686 438,-707c63,-57 135,-54 202,9c59,55 76,129 45,191c-9,18 -234,395 -501,840c-446,744 -487,809 -523,827c-53,27 -118,26 -161,-2c-24,-16 -112,-139 -289,-405c-140,-210 -257,-382 -260,-383c-3,0 -266,458 -586,1017c-338,592 -591,1025 -606,1036c-34,25 -85,35 -133,25z"></path></g></g></g></svg>